<svg xmlns="http://www.w3.org/2000/svg" viewBox="0 0 173.49 240.41"><defs><style>.cls-1{fill:#c64343;}.cls-2{fill:#b62c2c;}</style></defs><title>dimensions1Element 2pin</title><g id="Ebene_2" data-name="Ebene 2"><g id="Ebene_1-2" data-name="Ebene 1"><path class="cls-1" d="M0,86.85C-.46,66,5.65,47.42,18.92,31.33,31.14,16.52,46.77,7,65.39,2.43A85.39,85.39,0,0,1,97.48.82C113.71,3,128.33,9.05,140.9,19.54c10.59,8.84,19.61,19.08,25.65,31.66a72.28,72.28,0,0,1,6.91,33.66c-.33,13.08-3.47,25.55-8,37.71a225.64,225.64,0,0,1-18.22,36.67c-10.55,17.55-22.7,34-35,50.34-7.84,10.45-16.47,20.24-24.83,30.26-.28.33-.49,1-1.14.23-5.12-5.88-10.64-11.4-15.72-17.32-5.45-6.35-10.28-13.17-15.36-19.8-9.25-12.06-18.41-24.19-26.82-36.85C19.81,153.26,12.08,140,6.67,125.48,2.3,113.75-.27,101.7,0,89.12,0,88.36,0,87.6,0,86.85Zm86.89,68.78a53.43,53.43,0,0,0,7.59-.46,57.32,57.32,0,0,0,12-2.7A63.33,63.33,0,0,0,123.11,144a64.06,64.06,0,0,0,13.81-13.3,66.79,66.79,0,0,0,9.46-17A68.2,68.2,0,0,0,150.69,93a67.73,67.73,0,0,0-10.4-39.25A64.79,64.79,0,0,0,120.14,33.6a61.53,61.53,0,0,0-16.47-7.3,59.38,59.38,0,0,0-13.42-2.23,65.08,65.08,0,0,0-15.37,1.1,63.27,63.27,0,0,0-36,21.31,65.25,65.25,0,0,0-8.12,12,67.74,67.74,0,0,0-5.54,14.4A72.79,72.79,0,0,0,23,88a63.37,63.37,0,0,0,.43,9A66.32,66.32,0,0,0,27,112.66a64.62,64.62,0,0,0,12.83,21.67,62.79,62.79,0,0,0,47.09,21.3Z"/><path class="cls-2" d="M86.92,155.63a62.79,62.79,0,0,1-47.09-21.3A64.62,64.62,0,0,1,27,112.66,66.32,66.32,0,0,1,23.42,97,63.37,63.37,0,0,1,23,88a72.79,72.79,0,0,1,2.19-15.1,67.74,67.74,0,0,1,5.54-14.4,65.25,65.25,0,0,1,8.12-12,63.27,63.27,0,0,1,36-21.31,65.08,65.08,0,0,1,15.37-1.1,59.38,59.38,0,0,1,13.42,2.23,61.53,61.53,0,0,1,16.47,7.3,64.79,64.79,0,0,1,20.15,20.18A67.73,67.73,0,0,1,150.69,93a68.2,68.2,0,0,1-4.31,20.71,66.79,66.79,0,0,1-9.46,17A64.06,64.06,0,0,1,123.11,144a63.33,63.33,0,0,1-16.58,8.46,57.32,57.32,0,0,1-12,2.7A53.43,53.43,0,0,1,86.92,155.63Zm-1-23.36a41.72,41.72,0,0,0,28.85-11.5,43.79,43.79,0,0,0,9.45-50.06c-9-19.59-31.12-29.34-51.2-22.63-21.76,7.28-33.64,30.49-27.7,52.44C50.42,119.43,66.94,132.27,85.9,132.27Z"/><path class="cls-2" d="M85.9,132.27c-19,0-35.48-12.84-40.6-31.75-5.94-22,5.94-45.16,27.7-52.44,20.08-6.71,42.19,3,51.2,22.63a43.79,43.79,0,0,1-9.45,50.06A41.72,41.72,0,0,1,85.9,132.27Z"/></g></g></svg>