<svg xmlns="http://www.w3.org/2000/svg" viewBox="0 0 714.57 298.08"><defs><style>.cls-1,.cls-3{fill:#3e6a78;}.cls-2{fill:#fff;}.cls-3,.cls-4{stroke:#fff;stroke-miterlimit:10;stroke-width:11px;}.cls-4{fill:none;}</style></defs><g id="Layer_2" data-name="Layer 2"><g id="Ebene_1" data-name="Ebene 1"><path class="cls-1" d="M555.52,121.27a38.94,38.94,0,0,0,5.54,18V97.67a39.73,39.73,0,0,0-5,13A41.27,41.27,0,0,0,555.52,121.27Z"/><path class="cls-1" d="M549.46,158.81c-6.84-8.24-11-17.76-13.5-28.08a59.15,59.15,0,0,1-1.29-9.5,50.78,50.78,0,0,1,.1-8.09,60.23,60.23,0,0,1,6.75-22.93,62.75,62.75,0,0,1,11.36-15.42c.43-.42.69-.56,1.1,0s1,1.19,1.49,1.78.41.78-.06,1.27a63.86,63.86,0,0,0-8.47,10.89,56.08,56.08,0,0,0-7.2,18.38,57.27,57.27,0,0,0-.9,14.88,55.16,55.16,0,0,0,9.95,29,60.09,60.09,0,0,0,12.27,12.93V146.45a45.7,45.7,0,0,1-5.36-9A49.12,49.12,0,0,1,551.84,125a45,45,0,0,1-.46-5.07,41.83,41.83,0,0,1,2.94-17.53A45,45,0,0,1,561,90.75a40.54,40.54,0,0,0-40.38-38.9H74.85A40.54,40.54,0,0,0,34.43,92.28V198.1a40.54,40.54,0,0,0,40.42,40.43H561.06V169.28A53.65,53.65,0,0,1,549.46,158.81Z"/><path class="cls-1" d="M714.08,163.67Q685,134.63,656,105.58q-3.35-3.36-6.64-6.79c-.4-.42-.69-.47-1.1-.07-.69.68-1.4,1.34-2.08,2l-6.4,6.36c-.61.62-1.18.78-1.88.07s-1.41-1.23-2.13-1.83c-1-.87-1-.87-.12-1.91.23-.26.45-.54.7-.79L648.51,90.4c3-3,6-6,9-9a5.29,5.29,0,0,0,.2-7.81c-1.2-1.31-2.51-2.52-3.73-3.81-4.32-4.55-8.83-8.9-13.35-13.24a5.17,5.17,0,0,0-7.17.24C625.84,64.4,618.17,72,610.74,79.64c-1.28-1.25-2.53-2.5-3.83-3.71-.4-.37-.22-.56.06-.83,3-2.89,5.9-5.8,8.89-8.65.52-.5.5-.71,0-1.18q-3.48-3.37-6.89-6.82Q580.14,29.64,551.31.8c-.25-.25-.57-.43-.67-.8h-.78a44.53,44.53,0,0,1-4.11,4.56q-9,9.07-18,18.05a24.52,24.52,0,0,1-2.22,2c-.87.69-.9.77-.14,1.5l.41.41L590.2,90.87a1.31,1.31,0,0,1,.2.21c.41.59.74.46,1.2,0,2.8-2.91,5.65-5.77,8.44-8.69.46-.48.68-.43,1.09,0,.93,1,1.9,2,2.89,2.87.44.41.35.66,0,1-.73.69-1.44,1.39-2.14,2.11a60.36,60.36,0,0,0-4.77,5,3.21,3.21,0,0,0-.78,2.59,9.46,9.46,0,0,0,2.67,4.9c1.52,1.54,3.16,3,5.16,4.69-2.19,2-4.34,4-6.45,6-1.18,1.1-2.31,2.26-3.43,3.43-.38.39-.53.22-.79-.12-.94-1.2-1.9-2.36-2.87-3.53-.22-.26-.41-.69-.88-.19-2.26,2.42-3.76,5.06-3.21,8.56.9,5.71,4.82,8.32,9.66,8.55,3.11.15,5.5-1.47,7.57-3.63.4-.43,0-.56-.22-.73-1.27-1-2.53-2-3.83-3-.39-.29-.41-.48-.06-.82q4.18-4.11,8.35-8.23a1.14,1.14,0,0,1,1.89,0c1.68,1.66,3.36,3.32,5.1,4.91a5,5,0,0,0,7.25-.11c2-2,4-4,6-6.05.43-.45.69-.49,1.14,0,1,1.09,2.08,2.13,3.15,3.15.38.36.36.57,0,.92-3,2.84-5.9,5.71-8.88,8.52-.6.56-.49.85,0,1.34,3.74,3.48,7.31,7.13,10.91,10.75q14.48,14.53,29,29l24.83,24.82c.83.84,1.06.81,1.84-.08,1-1.1,2-2.23,3-3.28q9.06-9.1,18.18-18.16a16.88,16.88,0,0,1,3.12-2.72v-.78C714.41,164,714.23,163.83,714.08,163.67Z"/><path class="cls-1" d="M639.87,160.69a16.62,16.62,0,0,1-1.8-1.76c-.4-.45-.66-.42-1.07,0a52.51,52.51,0,0,1-6.61,5.66,57.26,57.26,0,0,1-44.82,10.23,59.07,59.07,0,0,1-17.77-6.43,54.88,54.88,0,0,1-6.74-4.5v5.38c.77.51,1.55,1,2.36,1.49a67.55,67.55,0,0,0,33.12,9.13c2.48-.15,4.15-.07,5.83-.22a57.69,57.69,0,0,0,9.78-1.71A59.67,59.67,0,0,0,632,168.33a68.54,68.54,0,0,0,7.84-6.59C640.25,161.35,640.39,161.11,639.87,160.69Z"/><path class="cls-1" d="M575.43,158.21a50.17,50.17,0,0,0,15.94,4.59,45.15,45.15,0,0,0,10.39.13,39.15,39.15,0,0,0,10.09-2.5,49.41,49.41,0,0,0,16.23-10.58c.43-.41.36-.63,0-1-.67-.55-1.31-1.14-2-1.72-.42-.37-.76-.46-1.19.05a16.73,16.73,0,0,1-1.8,1.77,40.18,40.18,0,0,1-27.66,10.12,30.58,30.58,0,0,1-8-.84c-10.54-2.31-18.75-8.14-25-16.85-.51-.71-1-1.44-1.44-2.17v7.21A39.9,39.9,0,0,0,575.43,158.21Z"/><path class="cls-1" d="M561.06,97.67a42,42,0,0,1,4.49-6.17c.64-.74,1.85-1.37,1.78-2.25s-1-1.72-1.57-2.6c-.33-.55-.57-.49-1-.07A47.24,47.24,0,0,0,561,90.75c0,.51,0,1,0,1.53Z"/><path class="cls-1" d="M580.9,102.47c0-.74-1-1.46-1.55-2.24s-.79-.55-1.28-.09a25.15,25.15,0,0,0-7.63,16.57A25.8,25.8,0,0,0,571,124a25.08,25.08,0,0,0,9.08,14.69,25.58,25.58,0,0,0,16.78,5.48,20.62,20.62,0,0,0,4.16-.39,24.89,24.89,0,0,0,13.4-7.07c.36-.34.38-.6,0-1a24.36,24.36,0,0,1-1.71-2c-.34-.46-.52-.47-.94-.08-6,5.58-12.93,7.65-20.93,5.78a20.09,20.09,0,0,1-11.37-7,22.3,22.3,0,0,1-5.06-14.7,21.27,21.27,0,0,1,4.78-13.19C579.8,103.86,580.89,103.18,580.9,102.47Z"/><path class="cls-2" d="M72.23,186.31a23.17,23.17,0,0,1-7.77-1.12v-10.8a15.72,15.72,0,0,0,5.14.94,7.06,7.06,0,0,0,4.77-1.79,10.22,10.22,0,0,0,2.9-5.8l9.11-43.07H79.1l1.34-6.48,8.17-3.74.8-3.75q1.83-8.49,6.19-12.39t12.2-3.91a24.27,24.27,0,0,1,10.49,2.19l-3.57,10a14.47,14.47,0,0,0-5.93-1.38,5.19,5.19,0,0,0-4.11,1.78,9.64,9.64,0,0,0-2.1,4.69l-.53,2.77h9.77l-2.19,10.22H99.81l-9.59,45.08Q86.79,186.31,72.23,186.31Zm50.26-22H109.05l10.58-49.9h13.44Zm-.72-61.6a7.68,7.68,0,0,1,2.12-5.87,8.49,8.49,0,0,1,6-2,7.68,7.68,0,0,1,4.95,1.39,4.84,4.84,0,0,1,1.7,4,8.41,8.41,0,0,1-2,5.78c-1.31,1.47-3.34,2.21-6.07,2.21Q121.77,108.24,121.77,102.75Z"/><path class="cls-2" d="M178.2,164.35H164.76l6.11-29.15a23.37,23.37,0,0,0,.72-5.31q0-5.49-4.82-5.49-4.11,0-7.46,5.09t-5.26,14.19l-4.38,20.67H136.24l10.58-49.9h10.26l-.94,9.24h.27q6.53-10.18,15.85-10.18,6.17,0,9.53,3.72t3.37,10.65a39.17,39.17,0,0,1-1,8Z"/><path class="cls-2" d="M233.41,164.35H220l6.12-29.15a23.3,23.3,0,0,0,.71-5.31c0-3.66-1.6-5.49-4.82-5.49q-4.09,0-7.45,5.09t-5.27,14.19l-4.37,20.67H191.45L202,114.45H212.3l-.94,9.24h.27q6.51-10.18,15.84-10.18,6.17,0,9.53,3.72t3.37,10.65a39.77,39.77,0,0,1-1,8Z"/><path class="cls-2" d="M282,147.88q0,8.38-5.56,12.88T261,165.24a45.14,45.14,0,0,1-8.33-.67,24.56,24.56,0,0,1-6.63-2.23V151.27a28.32,28.32,0,0,0,14.24,4,10.79,10.79,0,0,0,5.85-1.45,4.47,4.47,0,0,0,2.27-4,4.58,4.58,0,0,0-1.65-3.44,33.07,33.07,0,0,0-5.84-3.84q-5.42-3-7.55-6.05a12,12,0,0,1-2.14-7.12q0-7.59,4.93-11.76t14.08-4.17a31.4,31.4,0,0,1,16.21,4.24l-4.42,9.6q-6.25-3.75-11.52-3.75a6.86,6.86,0,0,0-4.1,1.13,3.59,3.59,0,0,0-1.57,3.06,4.06,4.06,0,0,0,1.43,3.06,25.74,25.74,0,0,0,5.36,3.32,22.48,22.48,0,0,1,7.94,6.12A12.36,12.36,0,0,1,282,147.88Z"/><path class="cls-2" d="M312,165.24q-9.36,0-14.55-5T292.28,146A38.1,38.1,0,0,1,296,129.11a27.58,27.58,0,0,1,10-11.61,26.06,26.06,0,0,1,14.24-4q7.9,0,12.32,3.64a12.2,12.2,0,0,1,4.42,10q0,8.35-7.45,12.88t-21.29,4.53H305.9l-.09.94v.89a8.06,8.06,0,0,0,8.88,8.75,27,27,0,0,0,7.05-.85,45.67,45.67,0,0,0,7.68-3V161.4A38.39,38.39,0,0,1,312,165.24Zm7.32-42.05q-3.91,0-7.41,3.58a17.27,17.27,0,0,0-4.55,8.7h2q6.92,0,10.78-2.17t3.86-5.87C324,124.61,322.46,123.19,319.33,123.19Z"/><path class="cls-2" d="M361.78,165.24q-9,0-13.77-4.8t-4.8-13.54a43.12,43.12,0,0,1,3.33-17.21,27.31,27.31,0,0,1,9.35-12,23.34,23.34,0,0,1,13.75-4.22,32.66,32.66,0,0,1,14.64,3.21l-4.11,10.22c-1.6-.68-3.18-1.28-4.73-1.78a16.78,16.78,0,0,0-5.26-.76,9.79,9.79,0,0,0-6.86,2.86,18.91,18.91,0,0,0-4.77,7.83,32.42,32.42,0,0,0-1.72,10.69q0,4.29,2,6.45a7.38,7.38,0,0,0,5.65,2.16,18.33,18.33,0,0,0,6.29-1,52.16,52.16,0,0,0,6-2.62v11A32,32,0,0,1,361.78,165.24Z"/><path class="cls-2" d="M395,114.45h13.43l-6.11,29.14a23.51,23.51,0,0,0-.72,5.31q0,5.49,4.82,5.49,4.11,0,7.46-5.08t5.27-14.2l4.37-20.66H437l-10.58,49.9H416.15l.94-9.24h-.27q-6.48,10.13-15.85,10.13-6.15,0-9.41-3.68c-2.18-2.46-3.26-6-3.26-10.65a48.64,48.64,0,0,1,1.07-9.5Z"/><path class="cls-2" d="M476.14,113.51a15.33,15.33,0,0,1,4.29.49l-2.95,12.94a13.42,13.42,0,0,0-4.46-.71,12.22,12.22,0,0,0-9.09,4.08Q460,134.4,458.38,142l-4.74,22.32H440.21l10.58-49.9h10.26l-.93,9.24h.26Q467,113.51,476.14,113.51Z"/><path class="cls-2" d="M500.78,165.24q-9.37,0-14.55-5T481.05,146a38.23,38.23,0,0,1,3.68-16.85,27.6,27.6,0,0,1,10-11.61,26,26,0,0,1,14.24-4q7.91,0,12.32,3.64a12.23,12.23,0,0,1,4.42,10q0,8.35-7.46,12.88t-21.29,4.53h-2.27l-.09.94v.89a8,8,0,0,0,8.88,8.75,27,27,0,0,0,7.05-.85,46.34,46.34,0,0,0,7.68-3V161.4A38.39,38.39,0,0,1,500.78,165.24Zm7.32-42.05q-3.93,0-7.41,3.58a17.19,17.19,0,0,0-4.55,8.7h2q6.92,0,10.78-2.17t3.86-5.87C512.79,124.61,511.23,123.19,508.1,123.19Z"/><line class="cls-3" x1="95.23" y1="183.36" x2="529.01" y2="183.36"/><path class="cls-1" d="M182.18,281.23v16.39h-7.8V255.68h12.79a26.68,26.68,0,0,1,7.35.89,13.83,13.83,0,0,1,5,2.48,9.4,9.4,0,0,1,2.87,3.81,12.71,12.71,0,0,1,.92,4.89,12.55,12.55,0,0,1-.63,4,11.51,11.51,0,0,1-1.79,3.42,12.51,12.51,0,0,1-2.9,2.7,15.16,15.16,0,0,1-3.93,1.85,7.87,7.87,0,0,1,2.55,2.41l10.5,15.49h-7a3.46,3.46,0,0,1-1.73-.41,3.58,3.58,0,0,1-1.2-1.16l-8.82-13.43a3.13,3.13,0,0,0-1.08-1.07,3.89,3.89,0,0,0-1.76-.32Zm0-5.6h4.87a12,12,0,0,0,3.84-.55,7.36,7.36,0,0,0,2.7-1.52,6.23,6.23,0,0,0,1.58-2.31,7.86,7.86,0,0,0,.52-2.92,6,6,0,0,0-2.1-4.91q-2.1-1.71-6.42-1.71h-5Z"/><path class="cls-1" d="M224,267.4a14.41,14.41,0,0,1,5.18.9,11.4,11.4,0,0,1,4.08,2.62,11.87,11.87,0,0,1,2.66,4.23,16,16,0,0,1,1,5.73,10.19,10.19,0,0,1-.07,1.35,2.25,2.25,0,0,1-.26.84,1.14,1.14,0,0,1-.51.44,2.29,2.29,0,0,1-.81.13H216.83c.21,3.05,1,5.3,2.47,6.73a7.67,7.67,0,0,0,5.68,2.14,9.86,9.86,0,0,0,3-.4,14.07,14.07,0,0,0,2.21-.9c.62-.33,1.18-.63,1.65-.9a2.77,2.77,0,0,1,1.38-.41,1.49,1.49,0,0,1,.75.18,1.6,1.6,0,0,1,.55.49l2.09,2.61a11.53,11.53,0,0,1-2.67,2.33,14.73,14.73,0,0,1-3.09,1.51,17,17,0,0,1-3.27.8,24.33,24.33,0,0,1-3.24.23,15.81,15.81,0,0,1-5.77-1,12.91,12.91,0,0,1-4.64-3,14.37,14.37,0,0,1-3.1-5,19.18,19.18,0,0,1-1.13-6.89,16.66,16.66,0,0,1,1-5.73,13.92,13.92,0,0,1,2.83-4.67,13.34,13.34,0,0,1,4.5-3.14A14.63,14.63,0,0,1,224,267.4Zm.15,5.13a6.62,6.62,0,0,0-4.9,1.77,8.73,8.73,0,0,0-2.26,5h13.45a9,9,0,0,0-.37-2.63,6.25,6.25,0,0,0-1.16-2.16,5.53,5.53,0,0,0-2-1.46A6.66,6.66,0,0,0,224.14,272.53Z"/><path class="cls-1" d="M263.61,274.15a3.19,3.19,0,0,1-.63.64,1.38,1.38,0,0,1-.88.23,2,2,0,0,1-1.07-.33l-1.25-.75a9.73,9.73,0,0,0-1.73-.76,8,8,0,0,0-2.48-.33,7.63,7.63,0,0,0-3.3.68,6.24,6.24,0,0,0-2.36,2,8.79,8.79,0,0,0-1.41,3.09,16.5,16.5,0,0,0-.47,4.1,15.92,15.92,0,0,0,.51,4.23A9,9,0,0,0,250,290a6.3,6.3,0,0,0,2.32,1.92,7.09,7.09,0,0,0,3.07.65,7.65,7.65,0,0,0,2.77-.42,8.41,8.41,0,0,0,1.78-.93c.49-.34.91-.65,1.27-.93a1.87,1.87,0,0,1,1.2-.42,1.44,1.44,0,0,1,1.3.67l2.06,2.61a12.49,12.49,0,0,1-2.58,2.33,14.18,14.18,0,0,1-2.88,1.51,14.94,14.94,0,0,1-3.09.8,22.72,22.72,0,0,1-3.16.23,13.1,13.1,0,0,1-5.19-1,12,12,0,0,1-4.25-3,14.25,14.25,0,0,1-2.87-4.83,18.52,18.52,0,0,1-1.06-6.51,19,19,0,0,1,.94-6.08,13.86,13.86,0,0,1,2.77-4.84,12.76,12.76,0,0,1,4.52-3.2,15.49,15.49,0,0,1,6.21-1.16,14.84,14.84,0,0,1,5.84,1.07,14.28,14.28,0,0,1,4.51,3.07Z"/><path class="cls-1" d="M283.07,267.4a16.4,16.4,0,0,1,6,1.07,13.07,13.07,0,0,1,4.63,3,13.61,13.61,0,0,1,3,4.81,20,20,0,0,1,0,12.73,13.83,13.83,0,0,1-3,4.84,12.88,12.88,0,0,1-4.63,3.08,17.64,17.64,0,0,1-12.1,0,13,13,0,0,1-4.66-3.08,13.75,13.75,0,0,1-3-4.84,19.82,19.82,0,0,1,0-12.73,13.53,13.53,0,0,1,3-4.81,13.2,13.2,0,0,1,4.66-3A16.47,16.47,0,0,1,283.07,267.4Zm0,25.14a6.3,6.3,0,0,0,5.49-2.49c1.19-1.67,1.79-4.1,1.79-7.31s-.6-5.66-1.79-7.34a6.27,6.27,0,0,0-5.49-2.52,6.36,6.36,0,0,0-5.57,2.54q-1.8,2.54-1.8,7.32t1.8,7.29A6.39,6.39,0,0,0,283.07,292.54Z"/><path class="cls-1" d="M303.34,297.62V267.86h4.38a1.76,1.76,0,0,1,1.82,1.31l.5,2.35a16,16,0,0,1,1.9-1.69,13.44,13.44,0,0,1,2.11-1.3,10.58,10.58,0,0,1,2.39-.84,12.26,12.26,0,0,1,2.79-.29,10.7,10.7,0,0,1,4.32.82,8.57,8.57,0,0,1,3.15,2.32,10.2,10.2,0,0,1,1.91,3.57,15,15,0,0,1,.65,4.57v18.94H322.1V278.68a6.36,6.36,0,0,0-1.26-4.22,4.66,4.66,0,0,0-3.79-1.49,7.51,7.51,0,0,0-3.48.84,12.46,12.46,0,0,0-3.07,2.29v21.52Z"/><path class="cls-1" d="M336.31,297.62V267.86h4.38a1.77,1.77,0,0,1,1.83,1.31l.49,2.35a16.77,16.77,0,0,1,1.9-1.69,13.44,13.44,0,0,1,2.11-1.3,10.66,10.66,0,0,1,2.4-.84,12.17,12.17,0,0,1,2.78-.29,10.64,10.64,0,0,1,4.32.82,8.57,8.57,0,0,1,3.15,2.32,10.2,10.2,0,0,1,1.91,3.57,15,15,0,0,1,.66,4.57v18.94h-7.17V278.68a6.36,6.36,0,0,0-1.26-4.22A4.65,4.65,0,0,0,350,273a7.45,7.45,0,0,0-3.48.84,12.32,12.32,0,0,0-3.08,2.29v21.52Z"/><path class="cls-1" d="M392.6,297.62h-3.22a3.52,3.52,0,0,1-1.6-.31,2,2,0,0,1-.87-1.23l-.63-2.12a27.24,27.24,0,0,1-2.22,1.79,14.16,14.16,0,0,1-2.25,1.29,11.58,11.58,0,0,1-2.46.78,15.17,15.17,0,0,1-2.9.26,11.34,11.34,0,0,1-3.48-.51,7.53,7.53,0,0,1-2.75-1.53,7,7,0,0,1-1.78-2.53,9.1,9.1,0,0,1-.64-3.52,7,7,0,0,1,.89-3.33,8.3,8.3,0,0,1,2.94-3,19.06,19.06,0,0,1,5.48-2.2,35.16,35.16,0,0,1,8.5-.87v-1.75a6.67,6.67,0,0,0-1.26-4.46,4.62,4.62,0,0,0-3.67-1.44,8.9,8.9,0,0,0-2.9.4,11.2,11.2,0,0,0-2,.92c-.57.33-1.09.64-1.58.91a3.18,3.18,0,0,1-1.59.4,2.08,2.08,0,0,1-1.25-.37,2.87,2.87,0,0,1-.84-.93L369.2,272a17.68,17.68,0,0,1,12.38-4.7,11.94,11.94,0,0,1,4.65.86,9.92,9.92,0,0,1,3.47,2.37,10.3,10.3,0,0,1,2.16,3.64,14.11,14.11,0,0,1,.74,4.64Zm-13.92-4.47a9.91,9.91,0,0,0,2-.2,7.38,7.38,0,0,0,1.75-.6,10,10,0,0,0,1.6-1,14.81,14.81,0,0,0,1.55-1.39v-5a28.49,28.49,0,0,0-5.24.4,13.63,13.63,0,0,0-3.37,1,4.38,4.38,0,0,0-1.82,1.43,3.26,3.26,0,0,0-.53,1.79,3.14,3.14,0,0,0,1.11,2.71A4.81,4.81,0,0,0,378.68,293.15Z"/><path class="cls-1" d="M408.34,259.19a4.09,4.09,0,0,1-.37,1.74,4.7,4.7,0,0,1-2.47,2.39,4.53,4.53,0,0,1-1.8.37,4.32,4.32,0,0,1-1.75-.37,4.47,4.47,0,0,1-1.43-1,4.56,4.56,0,0,1-1-1.42,4.24,4.24,0,0,1-.36-1.74,4.52,4.52,0,0,1,.36-1.8,4.58,4.58,0,0,1,1-1.45,4.63,4.63,0,0,1,1.43-1,4.32,4.32,0,0,1,1.75-.36,4.52,4.52,0,0,1,1.8.36,5,5,0,0,1,1.47,1,4.81,4.81,0,0,1,1,1.45A4.36,4.36,0,0,1,408.34,259.19Zm-1.07,8.67v29.76h-7.16V267.86Z"/><path class="cls-1" d="M433,273.66a1.76,1.76,0,0,1-.61.65,1.52,1.52,0,0,1-.81.19,2.42,2.42,0,0,1-1.11-.29l-1.38-.65a12.3,12.3,0,0,0-1.79-.65,8.23,8.23,0,0,0-2.36-.29,5.49,5.49,0,0,0-3.33.9,2.77,2.77,0,0,0-1.22,2.35,2.28,2.28,0,0,0,.62,1.61,5.85,5.85,0,0,0,1.65,1.14,17.39,17.39,0,0,0,2.34.89c.87.26,1.76.54,2.67.85a28,28,0,0,1,2.67,1.06,9.42,9.42,0,0,1,2.33,1.51,6.68,6.68,0,0,1,2.28,5.26,9.76,9.76,0,0,1-.79,4,8.6,8.6,0,0,1-2.29,3.13,10.69,10.69,0,0,1-3.72,2.06,16.19,16.19,0,0,1-5.09.74,15.75,15.75,0,0,1-3-.28,18.44,18.44,0,0,1-2.81-.76,15.86,15.86,0,0,1-2.49-1.16,12.31,12.31,0,0,1-2-1.45l1.66-2.73a2.24,2.24,0,0,1,.75-.75,2.06,2.06,0,0,1,1.1-.26,2.29,2.29,0,0,1,1.26.37q.6.38,1.38.81a12.3,12.3,0,0,0,1.84.82,8.17,8.17,0,0,0,2.68.37,7.07,7.07,0,0,0,2.19-.3,4.49,4.49,0,0,0,1.51-.8,2.91,2.91,0,0,0,.87-1.15,3.46,3.46,0,0,0,.28-1.34,2.37,2.37,0,0,0-.63-1.71A5.11,5.11,0,0,0,426,286.6a15.85,15.85,0,0,0-2.35-.89c-.88-.26-1.78-.54-2.7-.85a27,27,0,0,1-2.69-1.09,9.14,9.14,0,0,1-2.35-1.58,7,7,0,0,1-1.65-2.35,8.13,8.13,0,0,1-.63-3.36,8.53,8.53,0,0,1,.73-3.49,8.07,8.07,0,0,1,2.13-2.88,10.6,10.6,0,0,1,3.51-2,14.41,14.41,0,0,1,4.85-.74,15,15,0,0,1,5.6,1,12.76,12.76,0,0,1,4.21,2.67Z"/><path class="cls-1" d="M464,297.62H460.8a3.51,3.51,0,0,1-1.59-.31,1.92,1.92,0,0,1-.87-1.23L457.7,294a24.2,24.2,0,0,1-2.22,1.79,13.64,13.64,0,0,1-2.24,1.29,11.85,11.85,0,0,1-2.47.78,15.17,15.17,0,0,1-2.9.26,11.34,11.34,0,0,1-3.48-.51,7.49,7.49,0,0,1-2.74-1.53,6.9,6.9,0,0,1-1.78-2.53,8.92,8.92,0,0,1-.64-3.52,7,7,0,0,1,.88-3.33,8.26,8.26,0,0,1,2.95-3,19.06,19.06,0,0,1,5.48-2.2,35.1,35.1,0,0,1,8.5-.87v-1.75a6.67,6.67,0,0,0-1.27-4.46A4.61,4.61,0,0,0,452.1,273a8.87,8.87,0,0,0-2.89.4,10.89,10.89,0,0,0-2,.92l-1.58.91a3.25,3.25,0,0,1-1.6.4,2.07,2.07,0,0,1-1.24-.37,2.87,2.87,0,0,1-.84-.93L440.62,272a17.7,17.7,0,0,1,12.38-4.7,12,12,0,0,1,4.66.86,9.88,9.88,0,0,1,3.46,2.37,10.15,10.15,0,0,1,2.16,3.64,13.85,13.85,0,0,1,.74,4.64Zm-13.92-4.47a9.84,9.84,0,0,0,2-.2,7.46,7.46,0,0,0,1.76-.6,9.46,9.46,0,0,0,1.59-1A14.87,14.87,0,0,0,457,290v-5a28.41,28.41,0,0,0-5.24.4,13.72,13.72,0,0,0-3.38,1,4.41,4.41,0,0,0-1.81,1.43,3.19,3.19,0,0,0-.54,1.79,3.14,3.14,0,0,0,1.12,2.71A4.78,4.78,0,0,0,450.1,293.15Z"/><path class="cls-1" d="M471.07,297.62V267.86h4.38a1.77,1.77,0,0,1,1.83,1.31l.49,2.35a16.77,16.77,0,0,1,1.9-1.69,13.53,13.53,0,0,1,2.12-1.3,10.41,10.41,0,0,1,2.39-.84,12.17,12.17,0,0,1,2.78-.29,10.64,10.64,0,0,1,4.32.82,8.57,8.57,0,0,1,3.15,2.32,10.2,10.2,0,0,1,1.91,3.57,15,15,0,0,1,.66,4.57v18.94h-7.17V278.68a6.36,6.36,0,0,0-1.26-4.22,4.65,4.65,0,0,0-3.78-1.49,7.45,7.45,0,0,0-3.48.84,12.5,12.5,0,0,0-3.08,2.29v21.52Z"/><path class="cls-1" d="M525,274.15a3.17,3.17,0,0,1-.62.64,1.41,1.41,0,0,1-.89.23,2,2,0,0,1-1.07-.33c-.35-.22-.76-.47-1.25-.75a9.61,9.61,0,0,0-1.72-.76,8,8,0,0,0-2.48-.33,7.64,7.64,0,0,0-3.31.68,6.39,6.39,0,0,0-2.36,2,8.79,8.79,0,0,0-1.41,3.09,16.53,16.53,0,0,0-.46,4.1,15.92,15.92,0,0,0,.51,4.23,9,9,0,0,0,1.46,3.12,6.38,6.38,0,0,0,2.32,1.92,7.1,7.1,0,0,0,3.08.65,7.65,7.65,0,0,0,2.77-.42,8.67,8.67,0,0,0,1.78-.93q.72-.51,1.26-.93a1.91,1.91,0,0,1,1.2-.42,1.45,1.45,0,0,1,1.31.67l2.06,2.61a13,13,0,0,1-2.58,2.33,14,14,0,0,1-2.89,1.51,14.62,14.62,0,0,1-3.09.8,22.5,22.5,0,0,1-3.16.23,13.14,13.14,0,0,1-5.19-1,12.15,12.15,0,0,1-4.25-3,14.41,14.41,0,0,1-2.87-4.83,18.75,18.75,0,0,1-1.06-6.51,19,19,0,0,1,.95-6.08,13.84,13.84,0,0,1,2.76-4.84,12.71,12.71,0,0,1,4.53-3.2,15.48,15.48,0,0,1,6.2-1.16,14.86,14.86,0,0,1,5.85,1.07,14.51,14.51,0,0,1,4.51,3.07Z"/><path class="cls-1" d="M544,267.4a14.41,14.41,0,0,1,5.18.9,11.32,11.32,0,0,1,4.08,2.62,11.87,11.87,0,0,1,2.66,4.23,16,16,0,0,1,1,5.73,10.19,10.19,0,0,1-.07,1.35,2.25,2.25,0,0,1-.26.84,1.14,1.14,0,0,1-.51.44,2.29,2.29,0,0,1-.81.13H536.84c.21,3.05,1,5.3,2.47,6.73a7.67,7.67,0,0,0,5.68,2.14,9.86,9.86,0,0,0,3-.4,14.07,14.07,0,0,0,2.21-.9l1.65-.9a2.77,2.77,0,0,1,1.38-.41,1.49,1.49,0,0,1,.75.18,1.6,1.6,0,0,1,.55.49l2.09,2.61a11.53,11.53,0,0,1-2.67,2.33,14.73,14.73,0,0,1-3.09,1.51,17,17,0,0,1-3.27.8,24.33,24.33,0,0,1-3.24.23,15.81,15.81,0,0,1-5.77-1,12.91,12.91,0,0,1-4.64-3,14.37,14.37,0,0,1-3.1-5,19.18,19.18,0,0,1-1.13-6.89,16.66,16.66,0,0,1,1-5.73,13.92,13.92,0,0,1,2.83-4.67,13.34,13.34,0,0,1,4.5-3.14A14.67,14.67,0,0,1,544,267.4Zm.15,5.13a6.62,6.62,0,0,0-4.9,1.77,8.73,8.73,0,0,0-2.26,5h13.45a9,9,0,0,0-.37-2.63,6.25,6.25,0,0,0-1.16-2.16,5.53,5.53,0,0,0-2-1.46A6.66,6.66,0,0,0,544.15,272.53Z"/><path class="cls-4" d="M547.11,61.81c-60.36,48.72-533.2-73-533.2,90.8"/><polygon class="cls-2" points="26.21 114.74 9.31 121.21 14.46 103.86 3.08 89.78 21.17 89.31 31.04 74.14 37.08 91.2 54.56 95.9 40.2 106.92 41.13 124.99 26.21 114.74"/><path class="cls-1" d="M30.64,77.51l5.29,14.94,15.3,4.11-12.57,9.65L39.47,122l-13.06-9-14.8,5.67,4.51-15.19L6.15,91.2,22,90.79l8.64-13.28m.8-6.73-3.32,5.09-7.78,12L6.08,88.2,0,88.36l3.82,4.73,9,11.1-4,13.68L7,123.7l5.68-2.18L26,116.42l11.76,8.09,5,3.44-.31-6.07-.74-14.25,11.33-8.69,4.82-3.7L52,93.66,38.23,90,33.47,76.51l-2-5.73Z"/></g></g></svg>